HIERARCHY
ROOT Hips
{
	OFFSET 0.000000 0.000000 0.000000 
	CHANNELS 6 Xposition Yposition Zposition Zrotation Yrotation Xrotation
	JOINT LeftUpLeg
	{
		OFFSET 1.363060 -1.794630 0.839290 
		CHANNELS 3 Zrotation Yrotation Xrotation
		JOINT LeftLeg
		{
			OFFSET 2.448110 -6.726130 0.000000 
			CHANNELS 3 Zrotation Yrotation Xrotation
			JOINT LeftFoot
			{
				OFFSET 2.562200 -7.039590 0.000000 
				CHANNELS 3 Zrotation Yrotation Xrotation
				JOINT LeftToeBase
				{
					OFFSET 0.157640 -0.433110 2.322550 
					CHANNELS 3 Zrotation Yrotation Xrotation
					End Site
					{
						OFFSET 0.000000 0.000000 0.000000 
					}
				}
			}
		}
	}
	JOINT RightUpLeg
	{
		OFFSET -1.305520 -1.794630 0.839290 
		CHANNELS 3 Zrotation Yrotation Xrotation
		JOINT RightLeg
		{
			OFFSET -2.542530 -6.985550 0.000000 
			CHANNELS 3 Zrotation Yrotation Xrotation
			JOINT RightFoot
			{
				OFFSET -2.568260 -7.056230 0.000000 
				CHANNELS 3 Zrotation Yrotation Xrotation
				JOINT RightToeBase
				{
					OFFSET -0.164730 -0.452590 2.363150 
					CHANNELS 3 Zrotation Yrotation Xrotation
					End Site
					{
						OFFSET 0.000000 0.000000 0.000000 
					}
				}
			}
		}
	}
	JOINT Spine
	{
		OFFSET 0.028270 2.035590 -0.193380 
		CHANNELS 3 Zrotation Yrotation Xrotation
		JOINT Spine1
		{
			OFFSET 0.056720 2.048850 -0.042750 
			CHANNELS 3 Zrotation Yrotation Xrotation
			JOINT Neck1
			{
				OFFSET -0.054170 1.746240 0.172020 
				CHANNELS 3 Zrotation Yrotation Xrotation
				JOINT Head
				{
					OFFSET 0.104070 1.761360 -0.123970 
					CHANNELS 3 Zrotation Yrotation Xrotation
					End Site
					{
						OFFSET 0.000000 0.000000 0.000000 
					}
				}
			}
			JOINT LeftArm
			{
				OFFSET 3.362410 1.200890 -0.311210 
				CHANNELS 3 Zrotation Yrotation Xrotation
				JOINT LeftForeArm
				{
					OFFSET 4.983000 -0.000000 -0.000000 
					CHANNELS 3 Zrotation Yrotation Xrotation
					JOINT LeftHand
					{
						OFFSET 3.483560 -0.000000 -0.000000 
						CHANNELS 3 Zrotation Yrotation Xrotation
						JOINT LeftHandIndex1
						{
							OFFSET 0.715260 -0.000000 -0.000000 
							CHANNELS 3 Zrotation Yrotation Xrotation
							End Site
							{
								OFFSET 0.000000 0.000000 0.000000 
							}
						}
					}
				}
			}
			JOINT RightArm
			{
				OFFSET -3.136600 1.374050 -0.404650 
				CHANNELS 3 Zrotation Yrotation Xrotation
				JOINT RightForeArm
				{
					OFFSET -5.241900 -0.000000 -0.000000 
					CHANNELS 3 Zrotation Yrotation Xrotation
					JOINT RightHand
					{
						OFFSET -3.444170 -0.000000 -0.000000 
						CHANNELS 3 Zrotation Yrotation Xrotation
						JOINT RightHandIndex1
						{
							OFFSET -0.622530 -0.000000 -0.000000 
							CHANNELS 3 Zrotation Yrotation Xrotation
							End Site
							{
								OFFSET 0.000000 0.000000 0.000000 
							}
						}
					}
				}
			}
		}
	}
}
MOTION
Frames: 18
Frame Time: 0.041667
-0.632949 18.308525 6.079955 -5.214724 -1.382156 1.597698 -9.906044 -10.231710 -4.428580 1.007555 7.236568 23.643692 -0.560843 7.023035 -16.469554 8.369000 -16.384000 -53.881000 3.107941 1.871725 -1.936653 0.041819 0.585647 1.385097 0.270828 -1.068795 5.887914 0.000000 0.000000 0.000000 3.726147 0.170465 17.376860 -4.512760 0.359753 -12.943975 2.852151 -3.391785 40.670246 0.335800 -0.838500 12.521100 -92.174833 10.099114 25.021525 24.787549 -33.632307 -6.573561 0.685579 0.045915 7.663362 -7.125000 0.000000 0.000000 94.903999 -10.989150 21.297698 -31.847733 39.382244 -8.877611 0.829150 -3.115465 20.468676 7.125000 0.000000 0.000000 
-0.632360 18.308329 6.081132 -5.182296 -1.406337 1.580011 -9.938179 -10.239889 -4.385011 1.005344 7.236482 23.643349 -0.560494 7.048969 -16.543028 8.376800 -16.389500 -53.908900 3.105847 1.871937 -1.935837 0.042127 0.586140 1.385326 0.271027 -1.068156 5.887768 0.000000 0.000000 0.000000 3.602138 0.200679 17.370305 -4.485262 0.372662 -12.941111 2.926319 -3.409019 40.658354 0.354800 -0.834700 12.511200 -92.171572 10.123554 25.140149 24.912010 -33.740957 -6.593504 0.659958 0.062731 7.780652 -7.125000 0.000000 0.000000 94.917390 -11.025708 21.290915 -31.882374 39.408793 -8.893819 0.828954 -3.113994 20.452597 7.125000 0.000000 0.000000 
-0.631575 18.307838 6.082309 -5.232239 -1.439544 1.590368 -9.904868 -10.228294 -4.389249 1.005564 7.238102 23.648118 -0.564433 7.066669 -16.551558 8.379400 -16.391300 -53.917900 3.108635 1.871561 -1.937647 0.041802 0.585120 1.385001 0.270733 -1.069264 5.887673 0.000000 0.000000 0.000000 3.738917 0.202899 17.344661 -4.539400 0.371758 -12.920368 2.902334 -3.388820 40.677132 0.351300 -0.828300 12.516500 -92.172808 10.158252 25.204679 24.999918 -33.837160 -6.644751 0.666605 0.076603 7.729061 -7.125000 0.000000 0.000000 94.911205 -11.042313 21.296434 -31.903110 39.423983 -8.906114 0.826345 -3.114148 20.436423 7.125000 0.000000 0.000000 
-0.632066 18.307937 6.082309 -5.264476 -1.427583 1.643749 -9.880750 -10.193031 -4.457598 1.008358 7.239321 23.649335 -0.559551 7.017459 -16.467596 8.376300 -16.389200 -53.907100 3.114521 1.870105 -1.942787 0.041389 0.581954 1.383919 0.269720 -1.072518 5.886811 0.000000 0.000000 0.000000 3.929162 0.182299 17.212139 -4.569681 0.365378 -12.882373 2.784591 -3.342950 40.687149 0.326100 -0.826900 12.512200 -92.182861 10.196762 25.199663 25.032447 -33.874218 -6.678729 0.679185 0.080719 7.653109 -7.125000 0.000000 0.000000 94.876718 -11.057887 21.342109 -31.897392 39.413488 -8.907077 0.823519 -3.116160 20.407462 7.125000 0.000000 0.000000 
-0.632654 18.307937 6.082603 -5.222142 -1.419911 1.647740 -9.904261 -10.180960 -4.465093 1.009362 7.239547 23.649042 -0.550809 6.982190 -16.461323 8.375700 -16.388800 -53.904900 3.111915 1.870409 -1.941248 0.041718 0.582805 1.384213 0.269988 -1.071558 5.886826 0.000000 0.000000 0.000000 3.797135 0.199602 17.226198 -4.524219 0.375265 -12.877842 2.809254 -3.354424 40.631070 0.331100 -0.829700 12.492300 -92.159999 10.189663 25.247400 25.033705 -33.873181 -6.678372 0.679161 0.081458 7.644169 -7.125000 0.000000 0.000000 94.866913 -11.047399 21.398942 -31.879870 39.402020 -8.902892 0.822917 -3.118736 20.356937 7.125000 0.000000 0.000000 
-0.631968 18.306858 6.084075 -5.186238 -1.439224 1.570823 -9.930134 -10.186185 -4.391894 1.009206 7.237476 23.650727 -0.549164 6.995125 -16.515748 8.380900 -16.392400 -53.923400 3.104149 1.872478 -1.933534 0.042145 0.587460 1.385711 0.271459 -1.066903 5.888344 0.000000 0.000000 0.000000 3.597952 0.223411 17.453625 -4.492564 0.385665 -12.917033 2.995377 -3.430899 40.592408 0.373000 -0.836500 12.494000 -92.138119 10.140001 25.315487 25.017317 -33.864632 -6.669148 0.678179 0.080378 7.615389 -7.125000 0.000000 0.000000 94.884113 -11.008815 21.424869 -31.870907 39.405891 -8.898951 0.827331 -3.119692 20.322161 7.125000 0.000000 0.000000 
-0.631575 18.306956 6.084565 -5.168452 -1.445173 1.518795 -9.949856 -10.163713 -4.358937 1.010043 7.236539 23.653884 -0.555806 7.017365 -16.506293 8.399200 -16.405100 -53.988000 3.101050 1.873300 -1.930202 0.042291 0.589421 1.386285 0.272059 -1.064990 5.889052 0.000000 0.000000 0.000000 3.533286 0.227749 17.565099 -4.467973 0.390006 -12.948665 3.028973 -3.450738 40.635674 0.377100 -0.837400 12.516900 -92.141957 10.096268 25.323247 24.970842 -33.820777 -6.646354 0.677724 0.076999 7.607470 -7.125000 0.000000 0.000000 94.884572 -10.997778 21.443573 -31.872237 39.413673 -8.899168 0.833342 -3.120376 20.271230 7.125000 0.000000 0.000000 
-0.631870 18.308231 6.084761 -5.158760 -1.434657 1.524134 -9.953012 -10.151289 -4.371191 1.009854 7.237523 23.654193 -0.564793 7.042340 -16.478070 8.423200 -16.421900 -54.073100 3.100296 1.873340 -1.930199 0.042437 0.589461 1.386347 0.272072 -1.064863 5.888885 0.000000 0.000000 0.000000 3.472655 0.230527 17.543420 -4.448198 0.389828 -12.948065 3.007053 -3.429130 40.656726 0.370600 -0.827300 12.523500 -92.126299 10.074527 25.339686 24.922312 -33.769280 -6.623906 0.679048 0.077155 7.609321 -7.125000 0.000000 0.000000 94.879367 -10.998921 21.464882 -31.867082 39.409983 -8.898191 0.833856 -3.121366 20.203202 7.125000 0.000000 0.000000 
-0.632164 18.308133 6.084859 -5.139183 -1.423612 1.530735 -9.966284 -10.183766 -4.362749 1.009155 7.237392 23.652376 -0.562747 7.039368 -16.491050 8.410900 -16.413300 -54.029600 3.098827 1.873622 -1.929239 0.042591 0.590062 1.386583 0.272261 -1.064199 5.888953 0.000000 0.000000 0.000000 3.399508 0.226455 17.551406 -4.432937 0.386186 -12.943720 3.079069 -3.439494 40.597549 0.390100 -0.821800 12.504700 -92.103516 10.070065 25.394854 24.930957 -33.777531 -6.627258 0.679143 0.081085 7.560983 -7.125000 0.000000 0.000000 94.876139 -10.981937 21.469159 -31.850814 39.398201 -8.894083 0.825901 -3.121886 20.187612 7.125000 0.000000 0.000000 
-0.632262 18.307054 6.084859 -5.119069 -1.422389 1.523564 -9.985656 -10.179298 -4.354597 1.008852 7.236846 23.652342 -0.560495 7.036636 -16.507766 8.401000 -16.406400 -53.994400 3.098755 1.873522 -1.929260 0.042631 0.589974 1.386522 0.272228 -1.064288 5.888900 0.000000 0.000000 0.000000 3.387442 0.226684 17.550449 -4.420878 0.388080 -12.951302 3.095193 -3.456272 40.578088 0.393000 -0.828600 12.500200 -92.100460 10.076049 25.427926 24.951841 -33.797941 -6.635057 0.677529 0.081419 7.526785 -7.125000 0.000000 0.000000 94.866860 -10.966711 21.457258 -31.836958 39.387660 -8.888027 0.829221 -3.122947 20.203550 7.125000 0.000000 0.000000 
-0.632458 18.306563 6.084663 -5.131798 -1.417004 1.525172 -9.974944 -10.135104 -4.380429 1.008414 7.237009 23.650810 -0.572188 7.069673 -16.473979 8.418800 -16.418800 -54.057400 3.101037 1.872921 -1.931494 0.042500 0.588624 1.386078 0.271801 -1.065647 5.888471 0.000000 0.000000 0.000000 3.453046 0.226055 17.488732 -4.435158 0.387752 -12.958117 3.055597 -3.455879 40.623146 0.381800 -0.834000 12.515700 -92.109964 10.072139 25.411591 24.937234 -33.781543 -6.626988 0.676404 0.079589 7.558846 -7.125000 0.000000 0.000000 94.855248 -10.971329 21.452830 -31.846216 39.386922 -8.880974 0.853923 -3.121568 20.204451 7.125000 0.000000 0.000000 
-0.632458 18.306956 6.083976 -5.143682 -1.398428 1.519022 -9.960801 -10.142049 -4.386171 1.007566 7.236965 23.648296 -0.580413 7.094939 -16.456794 8.430300 -16.426800 -54.098000 3.100869 1.873021 -1.931445 0.042508 0.588719 1.386150 0.271825 -1.065527 5.888472 0.000000 0.000000 0.000000 3.442804 0.219253 17.481277 -4.438787 0.381599 -12.971731 2.977611 -3.438385 40.591110 0.355400 -0.835200 12.504400 -92.092250 10.073097 25.451428 24.940557 -33.786035 -6.630419 0.677657 0.081423 7.501024 -7.125000 0.000000 0.000000 94.864946 -10.964450 21.440105 -31.854708 39.388350 -8.871514 0.869588 -3.117321 20.218575 7.125000 0.000000 0.000000 
-0.632164 18.307642 6.083780 -5.111212 -1.389709 1.502466 -9.984120 -10.179366 -4.357800 1.007320 7.238595 23.653093 -0.580956 7.108930 -16.488896 8.436900 -16.431400 -54.121400 3.096769 1.873968 -1.928173 0.042840 0.590753 1.386875 0.272469 -1.063393 5.888937 0.000000 0.000000 0.000000 3.291312 0.234528 17.549395 -4.410627 0.386134 -12.983658 2.975928 -3.457989 40.507663 0.346100 -0.843700 12.478300 -92.050715 10.081546 25.546909 24.968178 -33.816813 -6.645567 0.679427 0.084557 7.415191 -7.125000 0.000000 0.000000 94.902001 -10.935314 21.398110 -31.839127 39.377757 -8.857619 0.866839 -3.114015 20.271264 7.125000 0.000000 0.000000 
-0.632164 18.307642 6.083486 -5.070895 -1.388288 1.508431 -10.013046 -10.167056 -4.366135 1.007758 7.242264 23.659219 -0.591136 7.139528 -16.460654 8.448400 -16.439300 -54.162100 3.094767 1.874141 -1.928029 0.043202 0.590957 1.387079 0.272552 -1.062967 5.888557 0.000000 0.000000 0.000000 3.145189 0.268349 17.499062 -4.389844 0.397829 -12.977482 3.062570 -3.514365 40.516607 0.364600 -0.858500 12.477700 -92.023844 10.095045 25.572445 24.969572 -33.816663 -6.646229 0.679812 0.084182 7.453830 -7.125000 0.000000 0.000000 94.927439 -10.925817 21.352488 -31.817411 39.352525 -8.840905 0.859735 -3.110348 20.353979 7.125000 0.000000 0.000000 
-0.632458 18.307152 6.083094 -5.092854 -1.384955 1.530857 -9.994544 -10.153371 -4.387145 1.006279 7.241884 23.652448 -0.594968 7.146999 -16.439804 8.446900 -16.438300 -54.156800 3.098551 1.873124 -1.932292 0.043041 0.588484 1.386354 0.271795 -1.065369 5.887631 0.000000 0.000000 0.000000 3.222312 0.268831 17.361360 -4.422720 0.394357 -12.963693 3.055643 -3.525138 40.594220 0.364900 -0.865700 12.497500 -92.024423 10.123247 25.544323 24.970029 -33.813607 -6.647122 0.680182 0.082491 7.451033 -7.125000 0.000000 0.000000 94.908093 -10.933588 21.341770 -31.801730 39.327881 -8.831403 0.853175 -3.108704 20.459183 7.125000 0.000000 0.000000 
-0.632752 18.307348 6.082898 -5.123980 -1.379124 1.543270 -9.978457 -10.201314 -4.367497 1.004554 7.236566 23.638882 -0.575596 7.086756 -16.482313 8.410600 -16.413100 -54.028600 3.102557 1.872290 -1.935063 0.042657 0.586729 1.385699 0.271244 -1.067268 5.887354 0.000000 0.000000 0.000000 3.387278 0.240749 17.321156 -4.453216 0.383542 -12.957254 2.986469 -3.485325 40.621099 0.352800 -0.858000 12.508600 -92.038777 10.128056 25.513697 24.998732 -33.840515 -6.659072 0.678311 0.082740 7.457581 -7.125000 0.000000 0.000000 94.865689 -10.932497 21.381755 -31.801076 39.330451 -8.842087 0.846314 -3.112689 20.512512 7.125000 0.000000 0.000000 
-0.632654 18.308721 6.082505 -5.093169 -1.354481 1.557143 -10.017516 -10.261335 -4.345059 1.001515 7.230095 23.620889 -0.567655 7.061467 -16.496432 8.391100 -16.399500 -53.959600 3.103682 1.871788 -1.936302 0.042650 0.585854 1.385359 0.270959 -1.068150 5.887038 0.000000 0.000000 0.000000 3.398079 0.225141 17.287023 -4.426680 0.380278 -12.951982 2.928390 -3.446538 40.626334 0.343000 -0.849100 12.511000 -92.049257 10.121733 25.492843 25.021339 -33.859168 -6.666385 0.675617 0.083067 7.560365 -7.125000 0.000000 0.000000 94.821057 -10.939445 21.427734 -31.820354 39.350647 -8.862670 0.842105 -3.116082 20.435245 7.125000 0.000000 0.000000 
-0.632360 18.309702 6.082505 -5.062292 -1.341190 1.577954 -10.050765 -10.253604 -4.349599 0.996169 7.223026 23.597214 -0.581292 7.110108 -16.484551 8.415400 -16.416500 -54.045500 3.105030 1.871134 -1.938500 0.042720 0.584488 1.384933 0.270536 -1.069431 5.886387 0.000000 0.000000 0.000000 3.380716 0.223827 17.203302 -4.405902 0.380890 -12.935332 2.931421 -3.436214 40.671057 0.349200 -0.844700 12.522700 -92.056446 10.136084 25.485203 25.027088 -33.860133 -6.667772 0.674918 0.083085 7.623077 -7.125000 0.000000 0.000000 94.785078 -10.955339 21.431407 -31.854989 39.373172 -8.879360 0.853889 -3.116328 20.332145 7.125000 0.000000 0.000000 
